<?xml version="1.0" standalone="no"?>
<!DOCTYPE svg PUBLIC "-//W3C//DTD SVG 20010904//EN"
 "http://www.w3.org/TR/2001/REC-SVG-20010904/DTD/svg10.dtd">
<svg version="1.0" xmlns="http://www.w3.org/2000/svg"
 width="734.000000pt" height="277.000000pt" viewBox="0 0 734.000000 277.000000"
 preserveAspectRatio="xMidYMid meet">

<g transform="translate(0.000000,277.000000) scale(0.100000,-0.100000)"
fill="#000000" stroke="none">
<path d="M2240 2491 c-45 -14 -84 -39 -116 -73 -49 -51 -64 -90 -64 -161 0
-142 97 -239 241 -238 75 0 132 24 177 77 118 133 62 340 -106 390 -49 15 -93
17 -132 5z"/>
<path d="M4886 2486 c-55 -20 -107 -65 -136 -117 -19 -35 -24 -58 -24 -114 0
-85 27 -142 91 -191 212 -162 498 103 350 324 -62 91 -184 134 -281 98z"/>
<path d="M3120 2230 c-58 -16 -140 -36 -182 -45 l-78 -16 0 -160 0 -159 -95 0
-95 0 0 -160 0 -160 94 0 95 0 3 -362 c3 -350 4 -365 26 -420 65 -161 197
-243 413 -255 52 -3 130 -2 172 2 l77 7 0 163 0 163 -74 -5 c-96 -7 -139 2
-180 37 -51 45 -56 83 -56 394 l0 276 150 0 150 0 0 160 0 159 -147 3 -148 3
-3 203 c-1 111 -6 201 -10 201 -4 -1 -54 -14 -112 -29z"/>
<path d="M4195 2249 c-16 -4 -101 -24 -187 -44 l-158 -37 0 -159 0 -159 -95 0
-95 0 0 -160 0 -160 94 0 95 0 3 -362 c3 -351 4 -365 26 -420 47 -118 128
-191 257 -231 60 -19 93 -22 232 -22 95 0 165 4 170 10 4 6 7 80 5 166 l-3
157 -83 -5 c-96 -6 -141 5 -180 46 -39 40 -47 117 -44 411 l3 245 147 3 c143
2 148 3 153 25 3 12 4 83 3 157 l-3 135 -149 5 -148 5 -5 200 c-3 110 -6 200
-7 201 0 1 -14 -2 -31 -7z"/>
<path d="M5990 1873 c-168 -28 -305 -97 -421 -212 -93 -93 -142 -177 -173
-297 -124 -490 230 -904 754 -881 222 10 389 83 526 229 73 78 126 176 154
288 31 117 25 288 -14 406 -93 288 -377 477 -708 473 -51 -1 -104 -4 -118 -6z
m240 -348 c80 -27 140 -81 185 -169 39 -76 40 -81 40 -180 0 -88 -3 -108 -26
-157 -51 -109 -142 -180 -256 -200 -122 -21 -273 37 -337 129 -54 79 -70 131
-71 227 0 105 18 164 75 240 87 116 239 159 390 110z"/>
<path d="M410 1846 c0 -6 82 -209 225 -556 147 -358 225 -547 278 -677 l41
-103 217 0 216 0 21 53 c12 28 40 97 62 152 23 55 75 181 115 280 68 167 225
552 309 758 20 48 36 90 36 93 0 2 -87 4 -193 4 l-194 0 -15 -37 c-170 -421
-312 -778 -338 -848 l-12 -30 -13 25 c-7 14 -59 142 -115 285 -57 143 -133
337 -170 430 l-67 170 -202 3 c-110 1 -201 0 -201 -2z"/>
<path d="M2110 1180 l0 -670 190 0 190 0 0 670 0 670 -190 0 -190 0 0 -670z"/>
<path d="M4770 1180 l0 -670 190 0 190 0 0 670 0 670 -190 0 -190 0 0 -670z"/>
</g>
</svg>
